PathFileType	4	(X/Y/Z)	C:/Users/opensim2020/Desktop/walking_exp_matlab/subject03_walking14_straight_03.trc																																																																																																																																											
DataRate	CameraRate	NumFrames	NumMarkers	Units	OrigDataRate	OrigDataStartFrame	OrigNumFrames																																																																																																																																							
100	100	4	47	mm	100	1662	215																																																																																																																																							
Frame#	Time	LFHD			RFHD			LBHD			RBHD			C7			T10			CLAV			STRN			RBAK			LSHO			LUPA			LELB			LFRM			LWRA			LWRB			LFIN			RSHO			RUPA			RELB			RFRM			RWRA			RWRB			RFIN			LASI			RASI			LPSI			RPSI			LTHI			LKNE			LTIB			LANK			LHEE			LTOE			RTHI			RKNE			RTIB			RANK			RHEE			RTOE			*39			*40			*41			*42			*43			*44			*45			*46		
		X1	Y1	Z1	X2	Y2	Z2	X3	Y3	Z3	X4	Y4	Z4	X5	Y5	Z5	X6	Y6	Z6	X7	Y7	Z7	X8	Y8	Z8	X9	Y9	Z9	X10	Y10	Z10	X11	Y11	Z11	X12	Y12	Z12	X13	Y13	Z13	X14	Y14	Z14	X15	Y15	Z15	X16	Y16	Z16	X17	Y17	Z17	X18	Y18	Z18	X19	Y19	Z19	X20	Y20	Z20	X21	Y21	Z21	X22	Y22	Z22	X23	Y23	Z23	X24	Y24	Z24	X25	Y25	Z25	X26	Y26	Z26	X27	Y27	Z27	X28	Y28	Z28	X29	Y29	Z29	X30	Y30	Z30	X31	Y31	Z31	X32	Y32	Z32	X33	Y33	Z33	X34	Y34	Z34	X35	Y35	Z35	X36	Y36	Z36	X37	Y37	Z37	X38	Y38	Z38	X39	Y39	Z39	X40	Y40	Z40	X41	Y41	Z41	X42	Y42	Z42	X43	Y43	Z43	X44	Y44	Z44	X45	Y45	Z45	X46	Y46	Z46	X47	Y47	Z47
																																																																																																																																														
81	0.8	-538.10699	1617.69238	1364.38403	-527.33887	1621.55042	1497.07056	-650.98706	1545.32971	1379.36426	-635.74847	1549.76184	1509.14307	-658.37421	1407.28333	1419.42773	-702.82092	1097.0166	1417.7113	-534.24689	1332.07349	1423.88098	-495.08405	1165.81201	1419.02649	-715.65088	1234.73877	1515.89868	-568.01337	1372.92419	1266.74402	-603.65704	1176.71985	1196.31592	-626.59454	1054.32678	1187.94055	-644.35266	924.15063	1188.5885	-681.62195	807.62634	1215.04688	-680.51141	818.53308	1158.61633	-728.4693	741.6059	1165.67017	-586.39008	1355.51221	1581.85779	-569.15125	1138.31812	1660.38306	-536.91052	1030.58936	1674.1095	-486.10739	903.89966	1671.5603	-430.97739	824.74402	1631.90149	-459.74976	807.15173	1673.51404	-409.64053	755.65472	1665.46472	-529.61798	938.01147	1312.43652	-551.04474	920.37164	1542.95288	-696.19122	959.09985	1344.48767	-706.46588	958.63043	1494.48474	-515.05646	644.88013	1256.47644	-463.83566	478.4487	1303.05139	-497.09824	279.57425	1295.99683	-508.98337	71.04111	1335.83875	-552.75323	37.12992	1370.97705	-359.93173	37.43428	1361.61572	-644.50092	625.71844	1586.34485	-655.54523	445.32419	1563.38904	-808.73199	325.34933	1567.82007	-973.84607	186.83205	1527.89539	-1019.35327	208.78108	1474.69116	-943.7998	47.44105	1498.78918	NaN	NaN	NaN	-627.25818	1657.11829	1424.74878	NaN	NaN	NaN	NaN	NaN	NaN	NaN	NaN	NaN	NaN	NaN	NaN	NaN	NaN	NaN	NaN	NaN	NaN
82	0.81	-525.37781	1618.73303	1363.4856	-514.80072	1622.73267	1496.22217	-638.19116	1546.28882	1378.3761	-623.3136	1550.95789	1508.24023	-645.5083	1408.16919	1418.0061	-689.55157	1097.96472	1416.84204	-521.26166	1333.17993	1423.48608	-481.93454	1166.81543	1419.0365	-703.07196	1235.68286	1514.45642	-553.9314	1373.69141	1266.18152	-586.21484	1176.96753	1195.54175	-607.27216	1054.00024	1186.96423	-622.42163	923.78687	1188.11304	-657.2074	806.75616	1214.80212	-656.29919	817.36572	1158.42603	-700.52649	738.78094	1165.81458	-574.40472	1356.56067	1580.9989	-558.73828	1139.1322	1659.6001	-527.69897	1031.01587	1673.55737	-479.09348	903.36804	1671.59387	-425.58783	822.81055	1632.38452	-454.71362	806.13171	1674.22083	-405.73264	753.19305	1666.13513	-516.48657	939.44879	1311.12219	-537.7251	921.03821	1542.20227	-683.38885	960.09155	1344.27478	-693.29346	958.67145	1494.16089	-506.62473	644.75977	1255.24011	-457.13153	477.64056	1301.2373	-493.37924	279.36145	1294.6853	-508.93652	71.04675	1335.62317	-552.92053	37.35001	1370.70776	-359.88474	37.14254	1361.47046	-625.23767	623.81927	1584.43396	-630.74805	443.49625	1561.3407	-784.86823	326.13821	1566.33081	-954.51355	194.38171	1525.81958	-1000.06122	216.48051	1472.63354	-926.28973	53.97363	1499.01282	NaN	NaN	NaN	-614.6767	1658.20398	1423.69214	NaN	NaN	NaN	NaN	NaN	NaN	NaN	NaN	NaN	NaN	NaN	NaN	NaN	NaN	NaN	NaN	NaN	NaN
83	0.82	-512.65912	1619.67664	1362.6637	-502.30743	1624.02393	1495.38538	-625.4469	1547.32141	1377.57739	-610.75549	1552.21741	1507.44531	-632.59833	1409.24536	1416.74365	-676.50494	1099.00049	1416.04651	-508.5126	1334.18164	1423.16052	-468.89572	1167.85046	1419.2041	-690.8205	1236.84668	1513.09937	-539.86133	1374.41443	1265.7019	-568.72253	1177.11328	1194.84363	-587.89178	1054.03748	1186.02905	-600.55786	923.28882	1188.07678	-632.33246	805.88763	1214.6283	-631.45905	816.38849	1157.86243	-671.32416	735.78259	1165.90796	-562.58142	1357.50208	1580.29651	-548.37384	1139.83582	1658.87939	-518.57092	1031.27795	1673.21948	-472.2905	902.65106	1671.79883	-420.32178	820.70294	1632.92896	-449.58054	804.96783	1675.15125	-402.06207	750.88013	1666.95374	-503.5321	940.67688	1310.04065	-525.14636	921.49146	1541.65808	-670.58569	960.95319	1343.78784	-680.38458	958.48889	1493.57227	-499.00925	644.12451	1253.66833	-451.03918	476.66846	1299.78088	-490.202	279.09497	1293.80908	-509.03003	71.07375	1335.47314	-552.94586	37.37156	1370.50293	-359.8403	36.92234	1361.3772	-606.03534	622.63141	1582.54529	-605.53253	442.37369	1559.56262	-760.44183	327.50281	1564.08667	-933.53668	201.17896	1523.4967	-979.36304	222.77426	1470.26575	-905.47021	60.2442	1499.27808	NaN	NaN	NaN	-601.99152	1659.29199	1422.60498	NaN	NaN	NaN	NaN	NaN	NaN	NaN	NaN	NaN	NaN	NaN	NaN	NaN	NaN	NaN	NaN	NaN	NaN
84	0.83	-499.81653	1620.7583	1361.94885	-489.75903	1625.41589	1494.62244	-612.74255	1548.35938	1376.82617	-598.20288	1553.59656	1506.6936	-619.58252	1410.44385	1415.62866	-663.43115	1099.99854	1415.22534	-495.81747	1335.2666	1423.06116	-456.20963	1168.83252	1419.35718	-678.65424	1237.99756	1511.6698	-525.91022	1375.09167	1265.38513	-551.27185	1177.42444	1194.42432	-568.28882	1053.87219	1185.23132	-577.98395	923.13879	1187.34375	-606.65997	805.08228	1214.29382	-606.13312	815.32556	1157.74512	-641.10333	733.07977	1166.13782	-550.67804	1358.39563	1579.85144	-538.18616	1140.39465	1658.26575	-509.629	1031.44592	1672.9447	-465.62344	901.86102	1672.0072	-415.25568	818.55383	1633.65552	-444.67886	803.79718	1676.11462	-398.57022	748.11755	1667.71521	-490.69626	941.63794	1309.00879	-512.72455	922.08905	1541.31165	-657.57294	961.97797	1343.15283	-667.69794	958.37323	1492.71521	-491.9007	643.55872	1253.16052	-445.66827	475.36929	1298.99585	-487.66937	278.8718	1293.08875	-508.98224	71.05358	1335.37231	-552.8609	37.23201	1370.33276	-359.95917	36.48196	1361.28088	-586.89331	622.60083	1580.68982	-580.32684	442.11838	1558.10657	-735.63879	329.35382	1561.52966	-910.81689	206.3611	1520.99805	-957.1441	227.48068	1467.49634	-882.24561	65.65913	1499.24719	NaN	NaN	NaN	-589.37494	1660.42859	1421.58374	NaN	NaN	NaN	NaN	NaN	NaN	NaN	NaN	NaN	NaN	NaN	NaN	NaN	NaN	NaN	NaN	NaN	NaN
